<svg width="24" height="24" viewBox="0 0 24 24" fill="none" xmlns="http://www.w3.org/2000/svg">
<g clip-path="url(#clip0_26020_966)">
<path fill-rule="evenodd" clip-rule="evenodd" d="M0 6.66667C0 2.98477 2.98477 0 6.66667 0H17.3333C21.0152 0 24 2.98477 24 6.66667V17.3333C24 21.0152 21.0152 24 17.3333 24H6.66667C2.98477 24 0 21.0152 0 17.3333V6.66667ZM6.66667 2.66667C4.45753 2.66667 2.66667 4.45753 2.66667 6.66667V17.3333C2.66667 19.5425 4.45753 21.3333 6.66667 21.3333H17.3333C19.5425 21.3333 21.3333 19.5425 21.3333 17.3333V6.66667C21.3333 4.45753 19.5425 2.66667 17.3333 2.66667H6.66667ZM16.7957 5.6193C16.7957 4.88292 17.3927 4.28597 18.1291 4.28597H18.1424C18.8788 4.28597 19.4757 4.88292 19.4757 5.6193C19.4757 6.35568 18.8788 6.95264 18.1424 6.95264H18.1291C17.3927 6.95264 16.7957 6.35568 16.7957 5.6193ZM12 8C9.79086 8 8 9.79086 8 12C8 14.2091 9.79086 16 12 16C14.2091 16 16 14.2091 16 12C16 9.79086 14.2091 8 12 8ZM5.33333 12C5.33333 8.3181 8.3181 5.33333 12 5.33333C15.6819 5.33333 18.6667 8.3181 18.6667 12C18.6667 15.6819 15.6819 18.6667 12 18.6667C8.3181 18.6667 5.33333 15.6819 5.33333 12Z" fill="#7F56D9"/>
</g>
<defs>
<clipPath id="clip0_26020_966">
<rect width="24" height="24" fill="white"/>
</clipPath>
</defs>
</svg>
